<svg width="60" height="60" viewBox="0 0 60 60" fill="none" xmlns="http://www.w3.org/2000/svg">
<path d="M25.9014 16.2939H34.333V19.5311H35.6505C39.3393 19.5311 42.2502 20.3843 44.3832 22.0907C46.5162 23.7971 47.5827 26.4194 47.5827 29.9577C47.5827 33.1195 46.4786 35.6478 44.2703 37.5424C42.062 39.437 39.1887 40.3843 35.6505 40.3843H34.333V43.772H25.9014V40.3843H24.584C21.0206 40.3843 18.1411 39.437 15.9453 37.5424C13.7496 35.6478 12.6517 33.1195 12.6517 29.9577C12.6517 26.4194 13.7182 23.7971 15.8512 22.0907C17.9842 20.3843 20.8951 19.5311 24.584 19.5311H25.9014V16.2939ZM26.2025 25.102H25.1486C23.8186 25.102 22.8086 25.5725 22.1185 26.5135C21.4284 27.4545 21.0834 28.6026 21.0834 29.9577C21.0834 31.3127 21.4472 32.4608 22.1749 33.4018C22.9027 34.3429 23.9943 34.8134 25.4497 34.8134H26.2025V25.102ZM34.0319 25.102V34.8134H34.7847C36.2402 34.8134 37.3318 34.3429 38.0595 33.4018C38.7872 32.4608 39.1511 31.3127 39.1511 29.9577C39.1511 28.6026 38.8061 27.4545 38.116 26.5135C37.4259 25.5725 36.4158 25.102 35.0859 25.102H34.0319Z" fill="white"/>
<path d="M53.9774 6.02258V53.9774H6.02258V6.02258H53.9774ZM60 0H0V60H60V0Z" fill="white"/>
</svg>
